<svg xmlns="http://www.w3.org/2000/svg" width="20.406" height="20.406" viewBox="0 0 20.406 20.406">
  <metadata><?xpacket begin="﻿" id="W5M0MpCehiHzreSzNTczkc9d"?>
<x:xmpmeta xmlns:x="adobe:ns:meta/" x:xmptk="Adobe XMP Core 5.6-c142 79.160924, 2017/07/13-01:06:39        ">
   <rdf:RDF xmlns:rdf="http://www.w3.org/1999/02/22-rdf-syntax-ns#">
      <rdf:Description rdf:about=""/>
   </rdf:RDF>
</x:xmpmeta>
                                                                                                    
                                                                                                    
                                                                                                    
                                                                                                    
                                                                                                    
                                                                                                    
                                                                                                    
                                                                                                    
                                                                                                    
                                                                                                    
                                                                                                    
                                                                                                    
                                                                                                    
                                                                                                    
                                                                                                    
                                                                                                    
                                                                                                    
                                                                                                    
                                                                                                    
                                                                                                    
                           
<?xpacket end="w"?></metadata>
<defs>
    <style>
      .cls-1 {
        fill: #fff;
        fill-rule: evenodd;
      }
    </style>
  </defs>
  <path id="checkout_icon" data-name="checkout icon" class="cls-1" d="M1.107,0.562H1.231C3.323,0.676,5.243.234,6.014,1.727c0.635,1.23.666,2.924,1.206,4.408H17.451c0.619,0,3-.2,3.2.208a1.765,1.765,0,0,1-.291,1.123C19.617,9.422,19,11.1,18.324,12.914a9.323,9.323,0,0,1-.915,2.121H9.424c0.314,0.845.178,1.907,0.832,2.37,0.677,0.48,2.563.208,3.743,0.208,1.487,0,2.868-.032,3.951.042a2.248,2.248,0,0,1,.333.749,1.913,1.913,0,0,1,.291.79c0.151,2.216-3.136,2.394-3.369.457a8.049,8.049,0,0,1,.125-1.206h-2.5a1.71,1.71,0,1,1-3.119,1.373,1.9,1.9,0,0,1,.291-1.58,2.006,2.006,0,0,1-.79-0.832,23.594,23.594,0,0,1-1.081-3.951c-0.691-2.745-1.3-5.3-2-8.068C5.866,4.3,5.638,2.077,4.849,1.6c-0.636-.383-2-0.055-2.828-0.166a0.962,0.962,0,0,1-.749.832A0.857,0.857,0,1,1,1.107.562ZM7.428,7.092c0.594,2.358,1.2,4.7,1.747,7.111h7.777c0.907-2.42,1.814-4.84,2.745-7.236H7.469C7.421,6.974,7.424,7.033,7.428,7.092ZM11.046,20.15c1.335,0.436,1.625-2.047.042-1.622A0.876,0.876,0,0,0,11.046,20.15Zm5.864,0.042a0.851,0.851,0,1,0-.291-1.663A0.851,0.851,0,0,0,16.91,20.192ZM7.469,6.967H19.7c-0.931,2.4-1.837,4.817-2.745,7.236H9.175C8.631,11.795,8.022,9.45,7.428,7.092,7.424,7.033,7.421,6.974,7.469,6.967Zm3.618,11.562c1.583-.425,1.294,2.058-0.042,1.622A0.876,0.876,0,0,1,11.088,18.529Zm5.531,0a0.851,0.851,0,1,1,.291,1.663A0.851,0.851,0,0,1,16.619,18.529Z" transform="translate(-0.281 -0.563)"/>
</svg>
