<svg xmlns="http://www.w3.org/2000/svg" width="16" height="16" viewBox="0 0 16 16">
  <metadata><?xpacket begin="﻿" id="W5M0MpCehiHzreSzNTczkc9d"?>
<x:xmpmeta xmlns:x="adobe:ns:meta/" x:xmptk="Adobe XMP Core 5.6-c142 79.160924, 2017/07/13-01:06:39        ">
   <rdf:RDF xmlns:rdf="http://www.w3.org/1999/02/22-rdf-syntax-ns#">
      <rdf:Description rdf:about=""/>
   </rdf:RDF>
</x:xmpmeta>
                                                                                                    
                                                                                                    
                                                                                                    
                                                                                                    
                                                                                                    
                                                                                                    
                                                                                                    
                                                                                                    
                                                                                                    
                                                                                                    
                                                                                                    
                                                                                                    
                                                                                                    
                                                                                                    
                                                                                                    
                                                                                                    
                                                                                                    
                                                                                                    
                                                                                                    
                                                                                                    
                           
<?xpacket end="w"?></metadata>
<defs>
    <style>
      .cls-1 {
        fill-rule: evenodd;
      }
    </style>
  </defs>
  <path id="dribbble" class="cls-1" d="M8.969,0a8,8,0,1,0,8,8A8,8,0,0,0,8.969,0Zm5.249,3.872a6.651,6.651,0,0,1,1.428,3.94,14.245,14.245,0,0,0-4.68-.113q-0.255-.582-0.523-1.133A9.645,9.645,0,0,0,14.218,3.872ZM13.3,2.917A8.445,8.445,0,0,1,9.835,5.382a34.054,34.054,0,0,0-2.44-3.874,6.58,6.58,0,0,1,1.574-.19A6.648,6.648,0,0,1,13.3,2.917ZM6.1,1.967A32.987,32.987,0,0,1,8.567,5.8a23.542,23.542,0,0,1-6.1.661A6.7,6.7,0,0,1,6.1,1.967ZM2.285,8c0-.071,0-0.145.007-0.216H2.328A24.577,24.577,0,0,0,9.192,7q0.238,0.482.465,0.991a10.41,10.41,0,0,0-5.717,4.4A6.649,6.649,0,0,1,2.285,8Zm2.628,5.306a9.171,9.171,0,0,1,5.258-4.086,22.658,22.658,0,0,1,1.342,4.957A6.658,6.658,0,0,1,4.913,13.306Zm7.829,0.2a24.109,24.109,0,0,0-1.261-4.55,13.292,13.292,0,0,1,4.072.172A6.69,6.69,0,0,1,12.742,13.51Z" transform="translate(-0.969)"/>
</svg>
