<svg xmlns="http://www.w3.org/2000/svg" width="15" height="16" viewBox="0 0 15 16">
  <metadata><?xpacket begin="﻿" id="W5M0MpCehiHzreSzNTczkc9d"?>
<x:xmpmeta xmlns:x="adobe:ns:meta/" x:xmptk="Adobe XMP Core 5.6-c142 79.160924, 2017/07/13-01:06:39        ">
   <rdf:RDF xmlns:rdf="http://www.w3.org/1999/02/22-rdf-syntax-ns#">
      <rdf:Description rdf:about=""/>
   </rdf:RDF>
</x:xmpmeta>
                                                                                                    
                                                                                                    
                                                                                                    
                                                                                                    
                                                                                                    
                                                                                                    
                                                                                                    
                                                                                                    
                                                                                                    
                                                                                                    
                                                                                                    
                                                                                                    
                                                                                                    
                                                                                                    
                                                                                                    
                                                                                                    
                                                                                                    
                                                                                                    
                                                                                                    
                                                                                                    
                           
<?xpacket end="w"?></metadata>
<defs>
    <style>
      .cls-1 {
        fill-rule: evenodd;
      }
    </style>
  </defs>
  <path id="google_plus" data-name="google plus" class="cls-1" d="M9.52,10.223C7.887,9.059,7.277,8.51,8.323,7.589s1.872-1.668,1.872-3.381A3.22,3.22,0,0,0,8.78,1.619a3.087,3.087,0,0,0,1.567-.155A5.762,5.762,0,0,0,11.13.96h-5.2c-1.044,0-3.94,1.184-3.94,3.95s3,3.359,4.094,3.315A1.264,1.264,0,0,0,6.32,10c0.327,0.351.261,0.461-.13,0.461s-5.227.053-5.227,3.514S7.386,17.687,9.5,15.822A3.48,3.48,0,0,0,9.52,10.223ZM6.428,7.544c-2.592,0-3.768-6.057-.719-6.057C8.082,1.4,9.868,7.544,6.428,7.544ZM6.121,16.017c-2.153,0-3.308-1.075-3.308-2.678s1.568-2.394,4.508-2.394c0.8,0.614,2.221,1.36,2.221,2.855S8.273,16.017,6.121,16.017ZM14.015,1V2.97h1.959V3.992H14.015V5.964H13V3.992H11.005V2.97H13V1h1.018Z" transform="translate(-0.969 -0.969)"/>
</svg>
