<svg xmlns="http://www.w3.org/2000/svg" width="20.094" height="19.938" viewBox="0 0 20.094 19.938">
  <metadata><?xpacket begin="﻿" id="W5M0MpCehiHzreSzNTczkc9d"?>
<x:xmpmeta xmlns:x="adobe:ns:meta/" x:xmptk="Adobe XMP Core 5.6-c142 79.160924, 2017/07/13-01:06:39        ">
   <rdf:RDF xmlns:rdf="http://www.w3.org/1999/02/22-rdf-syntax-ns#">
      <rdf:Description rdf:about=""/>
   </rdf:RDF>
</x:xmpmeta>
                                                                                                    
                                                                                                    
                                                                                                    
                                                                                                    
                                                                                                    
                                                                                                    
                                                                                                    
                                                                                                    
                                                                                                    
                                                                                                    
                                                                                                    
                                                                                                    
                                                                                                    
                                                                                                    
                                                                                                    
                                                                                                    
                                                                                                    
                                                                                                    
                                                                                                    
                                                                                                    
                           
<?xpacket end="w"?></metadata>
<defs>
    <style>
      .cls-1 {
        fill: #010101;
        fill-rule: evenodd;
      }
    </style>
  </defs>
  <path id="phone_icon" data-name="phone icon" class="cls-1" d="M7.78,14.99A31.212,31.212,0,0,1,1.916,7.932,8.984,8.984,0,0,1,.724,5.538,5.569,5.569,0,0,1,1.3,3.586,8.391,8.391,0,0,1,2.446,1.653C3.326,0.633,4.205-.061,5.065.1c1.362,0.25,2.819,2.246,3.1,3.335a2.578,2.578,0,0,1-.351,2.041A12.485,12.485,0,0,0,6.285,7.25C6.018,7.914,6.6,8.832,7.159,9.6a21.2,21.2,0,0,0,2.052,2.3c1.037,1.063,3.191,3.066,4.523,2.443,0.688-.322,1.335-1.276,1.917-1.575,1.25-.642,2.747-0.033,3.995,1.2,0.815,0.805,1.364,1.562,1.079,2.418-0.5,1.5-2.67,2.69-3.924,3.195a4.691,4.691,0,0,1-1.447.462,5.027,5.027,0,0,1-.954-0.4A28.317,28.317,0,0,1,7.78,14.99Zm10.26,3.248c0.7-.428,2.087-1.458,2.094-2.3,0.005-.7-0.765-1.406-1.53-2.008a2.82,2.82,0,0,0-2.18-.758c-0.9.191-1.536,1.392-2.482,1.782-1.1.456-2.278-.143-3.4-0.977A18,18,0,0,1,6.3,9.515,3.222,3.222,0,0,1,5.6,7.163C5.92,6.14,7.286,5.391,7.515,4.5A2.581,2.581,0,0,0,6.8,2.262C6.231,1.557,5.408.671,4.706,0.734c-0.837.074-1.849,1.39-2.3,2.143A10.1,10.1,0,0,0,1.38,5.466c2.287,5.336,8.679,11.7,14.06,13.9A12.18,12.18,0,0,0,18.04,18.238Z" transform="translate(-0.719 -0.094)"/>
</svg>
