<svg xmlns="http://www.w3.org/2000/svg" width="16" height="13" viewBox="0 0 16 13">
  <metadata><?xpacket begin="﻿" id="W5M0MpCehiHzreSzNTczkc9d"?>
<x:xmpmeta xmlns:x="adobe:ns:meta/" x:xmptk="Adobe XMP Core 5.6-c142 79.160924, 2017/07/13-01:06:39        ">
   <rdf:RDF xmlns:rdf="http://www.w3.org/1999/02/22-rdf-syntax-ns#">
      <rdf:Description rdf:about=""/>
   </rdf:RDF>
</x:xmpmeta>
                                                                                                    
                                                                                                    
                                                                                                    
                                                                                                    
                                                                                                    
                                                                                                    
                                                                                                    
                                                                                                    
                                                                                                    
                                                                                                    
                                                                                                    
                                                                                                    
                                                                                                    
                                                                                                    
                                                                                                    
                                                                                                    
                                                                                                    
                                                                                                    
                                                                                                    
                                                                                                    
                           
<?xpacket end="w"?></metadata>
<defs>
    <style>
      .cls-1 {
        fill-rule: evenodd;
      }
    </style>
  </defs>
  <path id="twitter" class="cls-1" d="M16.562,1.562a5.787,5.787,0,0,1-1.832.519A3.507,3.507,0,0,0,16.106.289a5.345,5.345,0,0,1-2.06.73,0,0,0,0,0,0,0,3.3,3.3,0,0,0-5.6,3.015h0A9.519,9.519,0,0,1,1.452.612a3.3,3.3,0,0,0,1,4.36A2.12,2.12,0,0,1,1.012,4.6,3.179,3.179,0,0,0,3.557,7.825a2.588,2.588,0,0,1-1.374.1,3.122,3.122,0,0,0,2.95,2.241A5.411,5.411,0,0,1,.562,11.54,9.91,9.91,0,0,0,5.725,13a9.17,9.17,0,0,0,9.238-9.64c0-.006,0-0.013,0-0.018s0-.029,0-0.042,0-.032,0-0.05A5.679,5.679,0,0,0,16.562,1.562Z" transform="translate(-0.563)"/>
</svg>
