<svg xmlns="http://www.w3.org/2000/svg" width="16.875" height="17.938" viewBox="0 0 16.875 17.938">
  <metadata><?xpacket begin="﻿" id="W5M0MpCehiHzreSzNTczkc9d"?>
<x:xmpmeta xmlns:x="adobe:ns:meta/" x:xmptk="Adobe XMP Core 5.6-c142 79.160924, 2017/07/13-01:06:39        ">
   <rdf:RDF xmlns:rdf="http://www.w3.org/1999/02/22-rdf-syntax-ns#">
      <rdf:Description rdf:about=""/>
   </rdf:RDF>
</x:xmpmeta>
                                                                                                    
                                                                                                    
                                                                                                    
                                                                                                    
                                                                                                    
                                                                                                    
                                                                                                    
                                                                                                    
                                                                                                    
                                                                                                    
                                                                                                    
                                                                                                    
                                                                                                    
                                                                                                    
                                                                                                    
                                                                                                    
                                                                                                    
                                                                                                    
                                                                                                    
                                                                                                    
                           
<?xpacket end="w"?></metadata>
<defs>
    <style>
      .cls-1 {
        fill: #080808;
        fill-rule: evenodd;
      }
    </style>
  </defs>
  <path id="user_icon" data-name="user icon" class="cls-1" d="M10.792,9.949a19.771,19.771,0,0,0,2.346,1.206,17.4,17.4,0,0,1,2.382,1.2c1.127,0.773,1.369.688,1.369,4.487a13.5,13.5,0,0,1-1.739.459,36.089,36.089,0,0,1-11.319.355A19.776,19.776,0,0,1,0,16.942c0.056-1.923.377-4.209,1.6-5.046a12.271,12.271,0,0,1,2.129-.985c0.709-.3,1.466-0.687,2.152-0.989a3.812,3.812,0,0,0-.349-0.637C5.414,9.051,5.133,8.771,5,8.5a10.5,10.5,0,0,0-.639-0.852C4.032,7.1,3.409,5.545,4.131,4.921,3.927,1.913,5.569.185,7.948,0.01c2.41-.177,4.44,1.156,4.606,3.314a6.181,6.181,0,0,0,0,1.561c0.073,0.222.229,0.289,0.288,0.5a2.366,2.366,0,0,1-.363,2.058,6.306,6.306,0,0,0-.368.568c-0.2.38-.511,0.809-0.711,1.171A5.351,5.351,0,0,1,10.792,9.949ZM11.709,5.24a3.306,3.306,0,0,1,0-.994c0-2.331-1.058-3.341-3.406-3.329-2.318.012-3.571,1.329-3.229,4.358-0.743.333-.295,1.627,0.071,2.2,0.182,0.285.479,0.494,0.6,0.745S5.885,8.731,6,8.966a2.8,2.8,0,0,0,2.164,1.668c1.456,0.147,2.282-1.107,2.7-1.952,0.141-.286.18-0.613,0.355-0.958a5.648,5.648,0,0,1,.461-0.532,1.926,1.926,0,0,0,.39-1.632A1.276,1.276,0,0,1,11.709,5.24ZM4.364,11.556a13.038,13.038,0,0,0-2.129.958c-1.085.74-1.07,2.157-1.266,3.77,4.26,0.821,10.689,1.131,15.012.063-0.113-1.462.024-2.611-.831-3.3A14.5,14.5,0,0,0,12.56,11.8c-0.872-.415-1.692-0.871-2.448-1.242a2.851,2.851,0,0,1-3.548-.035A17.957,17.957,0,0,1,4.364,11.556Z"/>
</svg>
