<svg xmlns="http://www.w3.org/2000/svg" width="19.406" height="17" viewBox="0 0 19.406 17">
  <metadata><?xpacket begin="﻿" id="W5M0MpCehiHzreSzNTczkc9d"?>
<x:xmpmeta xmlns:x="adobe:ns:meta/" x:xmptk="Adobe XMP Core 5.6-c142 79.160924, 2017/07/13-01:06:39        ">
   <rdf:RDF xmlns:rdf="http://www.w3.org/1999/02/22-rdf-syntax-ns#">
      <rdf:Description rdf:about=""/>
   </rdf:RDF>
</x:xmpmeta>
                                                                                                    
                                                                                                    
                                                                                                    
                                                                                                    
                                                                                                    
                                                                                                    
                                                                                                    
                                                                                                    
                                                                                                    
                                                                                                    
                                                                                                    
                                                                                                    
                                                                                                    
                                                                                                    
                                                                                                    
                                                                                                    
                                                                                                    
                                                                                                    
                                                                                                    
                                                                                                    
                           
<?xpacket end="w"?></metadata>
<defs>
    <style>
      .cls-1 {
        fill: #010101;
        fill-rule: evenodd;
      }
    </style>
  </defs>
  <path id="wishlist_icon" data-name="wishlist icon" class="cls-1" d="M10.046,17H9.963c-1.875-1.6-4.187-2.736-6.229-4.621C1.879,10.668.046,8.372,0.309,4.954A5.029,5.029,0,0,1,.681,3.386,5.477,5.477,0,0,1,5.343,0,5.4,5.4,0,0,1,9.963,1.942,6.1,6.1,0,0,1,13.759,0,5.458,5.458,0,0,1,19.7,4.995c0.252,3.519-1.626,5.657-3.424,7.343C14.393,14.1,11.947,15.429,10.046,17ZM5.384,0.828A4.554,4.554,0,0,0,1.135,5.077c-0.227,3.169,1.5,5.1,3.177,6.642a67.116,67.116,0,0,0,5.652,4.208A55.249,55.249,0,0,0,15.7,11.761c1.6-1.486,3.456-3.586,3.177-6.766A4.626,4.626,0,0,0,13.924.828a5.183,5.183,0,0,0-3.96,2.558C9.038,1.972,7.8.64,5.384,0.828ZM9.963,3.386A5.183,5.183,0,0,1,13.924.828a4.626,4.626,0,0,1,4.95,4.167c0.28,3.18-1.578,5.28-3.177,6.766a55.249,55.249,0,0,1-5.734,4.167,67.116,67.116,0,0,1-5.652-4.208C2.635,10.172.908,8.246,1.135,5.077A4.554,4.554,0,0,1,5.384.828C7.8,0.64,9.038,1.972,9.963,3.386Z" transform="translate(-0.281)"/>
</svg>
